<?xml version="1.0" standalone="no"?>
<!DOCTYPE svg PUBLIC "-//W3C//DTD SVG 20010904//EN"
 "http://www.w3.org/TR/2001/REC-SVG-20010904/DTD/svg10.dtd">
<svg version="1.0" xmlns="http://www.w3.org/2000/svg"
 width="1376.000000pt" height="768.000000pt" viewBox="0 0 1376.000000 768.000000"
 preserveAspectRatio="xMidYMid meet">

<g transform="translate(0.000000,768.000000) scale(0.100000,-0.100000)"
fill="#000000" stroke="none">
<path d="M6810 6506 c-121 -50 -428 -186 -557 -247 -49 -23 -155 -72 -238
-109 -82 -37 -319 -147 -525 -245 -206 -97 -406 -192 -445 -210 -272 -128
-452 -218 -462 -232 -16 -21 -17 -57 -2 -48 16 10 71 -16 65 -31 -10 -26 18
-401 50 -679 28 -243 137 -962 147 -972 2 -1 281 -3 622 -4 669 -3 680 -2 792
50 161 76 244 219 245 426 2 216 -82 367 -246 444 -90 43 -148 51 -351 51
l-185 0 0 -405 0 -405 -185 0 -185 0 0 556 0 556 428 -4 c406 -4 431 -6 512
-27 242 -66 403 -190 500 -386 59 -119 80 -214 80 -370 0 -152 -24 -260 -87
-385 -52 -103 -188 -241 -290 -294 -198 -102 -236 -106 -980 -106 l-613 0 0
-28 c0 -39 93 -381 129 -473 65 -167 181 -362 319 -534 78 -98 300 -323 407
-413 268 -226 671 -488 1040 -678 101 -52 141 -78 145 -93 5 -21 6 -21 65 7
219 104 762 434 905 549 2 2 -2 8 -10 13 -8 5 -12 11 -10 13 3 2 39 30 80 62
196 154 437 386 557 537 180 227 271 388 354 627 35 104 51 136 67 142 15 6
24 20 28 49 5 30 9 38 16 28 7 -9 8 -8 4 6 -3 10 -1 36 4 57 19 69 28 173 17
187 -15 19 -12 52 32 322 105 643 148 990 172 1385 10 159 16 203 28 212 23
18 28 16 40 -14 9 -26 10 -25 8 16 -2 47 -5 50 -72 71 -22 7 -122 53 -222 101
-101 49 -185 89 -188 89 -3 0 -90 41 -193 91 -103 50 -201 98 -219 106 -18 9
-42 25 -53 35 -61 57 -1351 648 -1412 648 -13 0 -70 -20 -128 -44z m8 -63 c21
-5 16 -10 -40 -36 -78 -37 -399 -178 -413 -181 -5 -2 -53 -23 -105 -48 -145
-69 -203 -95 -230 -102 -14 -3 -19 -3 -12 0 6 3 12 14 12 23 0 13 29 31 99 64
54 26 108 47 120 47 11 0 21 5 21 11 0 5 5 7 10 4 6 -3 10 0 10 7 0 10 2 10 8
1 5 -8 13 -9 22 -3 13 9 13 10 0 10 -18 1 28 24 225 113 83 37 164 74 180 82
34 15 59 18 93 8z m354 -192 c40 -16 189 -81 330 -145 142 -64 259 -116 262
-116 3 0 79 -36 169 -79 102 -49 169 -87 176 -100 14 -26 29 -32 -254 99 -121
56 -342 157 -490 224 -149 68 -280 128 -290 134 -42 24 23 13 97 -17z m803
-191 c3 -6 -1 -7 -9 -4 -18 7 -21 14 -7 14 6 0 13 -4 16 -10z m270 -140 c64
-16 345 -167 345 -186 0 -12 -5 -12 -36 1 -20 8 -38 15 -40 15 -2 0 -4 -25 -4
-56 l0 -55 153 -73 c83 -40 194 -93 245 -116 50 -24 92 -50 92 -57 0 -7 -2
-13 -5 -13 -2 0 -75 34 -162 76 -147 71 -309 144 -319 144 -2 0 -4 -488 -4
-1085 l0 -1085 -154 0 -154 0 -83 97 c-46 53 -163 193 -261 311 -99 117 -241
286 -316 375 l-137 162 -3 -473 -2 -472 -180 0 -180 0 0 785 0 785 154 0 155
0 111 -132 c61 -73 238 -285 393 -470 l282 -337 3 928 2 928 23 11 c12 6 29 8
37 5 8 -3 29 -9 45 -13z m874 -667 c0 -16 -4 -48 -8 -73 -8 -43 -9 -41 -10 28
0 42 3 72 9 72 6 0 10 -12 9 -27z m-32 -330 c-3 -10 -5 -4 -5 12 0 17 2 24 5
18 2 -7 2 -21 0 -30z m-3289 -1840 c2 -16 -20 -49 -77 -117 -45 -51 -81 -97
-81 -100 0 -3 38 -6 85 -6 84 0 85 0 85 -25 l0 -25 -130 0 -130 0 0 24 c0 15
28 57 79 117 l79 94 -79 3 c-76 3 -79 4 -79 27 0 13 6 26 13 29 6 2 62 4 122
3 105 -2 110 -3 113 -24z m122 -86 c4 -93 8 -111 24 -123 11 -8 29 -14 41 -14
12 0 30 6 41 14 16 12 20 30 24 123 l5 108 30 0 30 0 0 -117 c0 -110 -1 -118
-24 -142 -52 -55 -146 -58 -204 -6 l-32 28 -3 122 -4 121 34 -3 33 -3 5 -108z
m338 -14 l3 -123 74 0 c73 0 75 -1 75 -25 l0 -25 -110 0 -110 0 0 143 c0 79 3
147 7 151 4 4 19 6 33 4 l25 -3 3 -122z m360 115 c9 -11 65 -133 118 -255 l14
-33 -35 0 c-28 0 -37 5 -50 30 -15 29 -18 30 -86 30 -69 0 -70 -1 -80 -30 -9
-25 -16 -30 -45 -30 -19 0 -34 2 -34 4 0 6 108 254 121 278 11 21 61 24 77 6z
m351 1 c33 -12 37 -20 21 -49 -9 -16 -12 -17 -52 -3 -34 12 -49 13 -71 4 -46
-18 -31 -43 41 -68 85 -29 104 -47 100 -96 -5 -68 -83 -103 -173 -78 -58 16
-68 25 -60 51 5 17 12 20 28 15 47 -14 117 -17 131 -6 26 22 6 40 -65 61 -92
28 -116 62 -87 126 22 48 113 69 187 43z m280 0 c31 -11 37 -23 22 -47 -6 -11
-17 -11 -55 -1 -52 13 -96 2 -96 -25 0 -21 21 -34 75 -46 62 -14 95 -43 95
-85 0 -42 -23 -71 -66 -85 -56 -19 -174 5 -174 34 1 30 18 39 48 27 16 -7 49
-11 73 -9 36 2 45 7 47 25 3 19 -5 24 -67 43 -93 27 -123 71 -90 131 22 43
119 62 188 38z m163 -93 c3 -115 18 -146 67 -146 56 0 71 33 71 155 l0 96 33
-3 32 -3 3 -100 c2 -80 -1 -107 -15 -135 -25 -48 -75 -73 -135 -66 -59 6 -97
30 -114 73 -14 33 -20 214 -7 226 3 4 19 7 34 7 l27 0 4 -104z m403 15 l70
-88 5 86 5 86 33 3 32 3 0 -150 0 -151 -29 0 c-23 0 -40 15 -100 86 l-71 86 0
-87 0 -86 -37 3 -38 3 -3 134 c-1 74 0 141 2 148 3 7 18 13 33 13 23 0 40 -15
98 -89z m453 69 c43 -19 43 -19 26 -45 -19 -29 -22 -30 -48 -10 -59 44 -156
-6 -156 -80 0 -66 71 -113 134 -89 11 4 16 19 16 51 0 44 0 44 33 41 29 -3 32
-6 35 -42 6 -70 -3 -83 -63 -102 -48 -16 -62 -16 -103 -5 -78 21 -122 76 -122
154 0 115 128 181 248 127z m-2334 -472 c8 -13 8 -23 0 -35 -9 -14 -8 -24 4
-41 23 -35 -3 -56 -70 -57 l-53 0 -3 78 -3 78 57 -3 c41 -2 60 -8 68 -20z m72
-20 c30 -46 25 -48 77 23 10 13 4 -2 -12 -33 -17 -32 -32 -70 -32 -85 -1 -25
-2 -24 -8 7 -4 19 -19 54 -34 77 -15 24 -27 45 -27 48 0 14 12 1 36 -37z m308
36 c9 -3 16 -10 16 -14 0 -5 -14 -3 -30 3 -44 17 -84 -7 -88 -52 -5 -45 20
-71 69 -71 35 0 38 2 42 33 l4 32 1 -37 c2 -32 -1 -37 -26 -43 -62 -13 -120
37 -107 95 11 48 67 74 119 54z m134 -1 c-46 -4 -48 -6 -48 -34 0 -27 3 -29
43 -31 l42 -1 -42 -4 c-40 -4 -43 -6 -43 -34 0 -28 1 -29 51 -29 31 0 48 -4
44 -10 -3 -5 -28 -10 -55 -10 l-48 0 -4 80 -3 80 55 -2 55 -2 -47 -3z m112
-73 c0 -47 -4 -80 -10 -80 -6 0 -10 33 -10 80 0 47 4 80 10 80 6 0 10 -33 10
-80z m118 73 c-46 -4 -48 -6 -48 -34 0 -27 3 -29 43 -31 l42 -1 -42 -4 c-40
-4 -43 -6 -43 -34 0 -28 1 -29 50 -29 28 0 50 -4 50 -10 0 -6 -27 -10 -60 -10
l-60 0 0 80 0 80 58 -2 c56 -2 56 -2 10 -5z m200 -5 c17 -17 15 -63 -3 -78
-14 -11 -14 -15 1 -37 8 -14 13 -27 11 -30 -3 -2 -13 7 -22 21 -22 33 -75 37
-75 7 0 -11 -4 -23 -10 -26 -6 -4 -10 23 -10 74 l0 81 48 0 c26 0 53 -5 60
-12z m210 -11 c2 -10 -4 -25 -14 -32 -18 -13 -18 -14 0 -34 16 -17 22 -19 34
-8 13 10 15 9 9 -7 -4 -10 -3 -24 3 -31 8 -10 5 -13 -12 -13 -13 0 -34 -3 -48
-7 -18 -5 -33 -1 -50 13 l-25 20 21 29 c16 21 19 32 11 45 -8 12 -7 21 3 33
18 21 64 16 68 -8z m247 -54 c19 -42 33 -78 31 -80 -2 -3 -9 5 -16 16 -9 17
-20 21 -60 21 -40 0 -51 -4 -60 -21 -7 -11 -14 -19 -16 -16 -7 6 67 157 77
157 5 0 24 -34 44 -77z m76 37 c13 -22 25 -40 28 -40 4 0 17 18 31 40 14 22
29 40 34 40 8 0 -3 -20 -41 -75 -7 -11 -13 -34 -13 -52 0 -18 -4 -33 -10 -33
-5 0 -10 15 -10 33 0 20 -12 52 -30 80 -16 26 -25 47 -20 47 5 0 19 -18 31
-40z m149 5 l0 -35 50 0 50 0 0 35 c0 19 5 35 10 35 6 0 10 -33 10 -80 0 -81
-16 -112 -22 -42 -3 37 -3 37 -50 40 l-48 3 0 -40 c0 -23 -4 -41 -10 -41 -6 0
-10 33 -10 80 0 47 4 80 10 80 6 0 10 -16 10 -35z m275 -42 c34 -73 41 -108
13 -64 -18 30 -104 31 -113 1 -5 -16 -25 -29 -25 -16 0 16 72 156 80 156 6 0
26 -34 45 -77z m135 19 l45 -57 3 58 c5 86 22 68 22 -23 0 -44 -3 -80 -7 -79
-5 0 -30 28 -58 62 l-50 61 -3 -62 c-4 -87 -22 -68 -22 24 0 53 4 74 13 73 6
0 32 -26 57 -57z"/>
<path d="M6561 2987 c-12 -27 -21 -53 -21 -58 0 -5 20 -9 45 -9 25 0 45 2 45
4 0 2 -11 28 -24 57 l-24 54 -21 -48z"/>
<path d="M5830 2600 c0 -28 2 -30 39 -30 22 0 44 6 51 15 19 23 -5 45 -51 45
-37 0 -39 -2 -39 -30z"/>
<path d="M5830 2530 c0 -31 0 -31 48 -28 43 3 47 5 47 28 0 23 -4 25 -47 28
-48 3 -48 3 -48 -28z"/>
<path d="M6790 2590 c0 -39 1 -40 33 -40 37 0 57 15 57 42 0 21 -29 38 -64 38
-24 0 -26 -4 -26 -40z"/>
<path d="M7033 2614 c-3 -8 -1 -20 6 -27 14 -14 47 15 37 32 -10 16 -36 13
-43 -5z"/>
<path d="M7020 2545 c-19 -23 -4 -45 30 -45 34 0 40 18 12 43 -23 21 -26 21
-42 2z"/>
<path d="M7267 2580 l-15 -40 38 0 38 0 -15 40 c-9 22 -19 40 -23 40 -4 0 -14
-18 -23 -40z"/>
<path d="M7767 2575 l-17 -35 40 0 40 0 -17 35 c-9 19 -20 35 -23 35 -3 0 -14
-16 -23 -35z"/>
<path d="M5743 6069 c14 -8 22 -8 30 0 8 8 3 11 -18 11 -26 -1 -28 -2 -12 -11z"/>
<path d="M5037 5803 c-21 -49 -37 -113 -29 -113 4 0 22 9 40 20 33 21 38 38
26 99 -8 41 -17 39 -37 -6z"/>
<path d="M4421 5338 c3 -79 5 -83 75 -138 l64 -50 0 32 c0 18 -12 56 -26 83
-26 50 -90 125 -107 125 -4 0 -7 -24 -6 -52z"/>
<path d="M4443 4985 c0 -27 2 -38 4 -22 2 15 2 37 0 50 -2 12 -4 0 -4 -28z"/>
<path d="M4453 4875 c0 -22 2 -30 4 -17 2 12 2 30 0 40 -3 9 -5 -1 -4 -23z"/>
<path d="M4413 4805 c-3 -9 -3 -18 -1 -21 3 -3 8 4 11 16 6 23 -1 27 -10 5z"/>
<path d="M4460 4769 c0 -46 -1 -49 -16 -35 -8 9 -17 16 -19 16 -18 0 113 -871
205 -1360 81 -435 176 -686 365 -970 120 -179 198 -274 380 -456 227 -228 428
-386 760 -600 298 -193 745 -433 804 -434 13 0 110 44 215 98 764 394 1321
832 1677 1320 l31 43 -28 -7 c-16 -4 -36 -12 -44 -18 -8 -6 1 10 20 36 18 27
36 46 39 43 3 -3 11 5 18 17 12 23 12 23 13 -6 0 -38 5 -32 73 80 61 100 148
285 172 366 13 44 13 54 2 66 -11 11 -18 2 -42 -55 -111 -267 -169 -353 -238
-353 -41 0 -32 8 -230 -200 -328 -344 -377 -390 -519 -484 -62 -41 -142 -96
-178 -121 -247 -177 -672 -432 -913 -548 l-78 -38 -132 67 c-886 450 -1498
983 -1763 1538 -84 176 -121 297 -195 628 -12 54 -25 95 -29 93 -13 -8 -59
234 -110 570 -16 110 -37 243 -45 295 -8 52 -24 154 -35 226 -11 72 -22 138
-25 146 -3 8 -23 20 -44 27 -21 6 -50 22 -64 35 l-27 25 0 -50z m71 -113 c33
-14 91 -66 73 -66 -26 1 -97 28 -105 41 -9 14 -12 39 -5 39 2 0 19 -6 37 -14z
m4223 -2341 c-14 -19 -29 -35 -31 -35 -5 0 7 18 36 53 26 31 23 18 -5 -18z
m-44 -58 c0 -2 -12 -14 -27 -28 l-28 -24 24 28 c23 25 31 32 31 24z m-108
-124 c-147 -165 -384 -379 -404 -366 -6 3 -8 1 -4 -5 8 -13 -33 -44 -47 -35
-6 3 -7 1 -4 -4 8 -12 -11 -29 -33 -32 -78 -9 -117 -8 -138 3 -25 13 -24 14
29 26 29 7 88 26 130 41 42 15 79 26 81 24 10 -10 152 116 293 261 83 84 152
153 154 154 1 0 -24 -30 -57 -67z m-497 -453 c-3 -5 -20 -19 -38 -30 -32 -22
-32 -22 3 9 37 32 45 37 35 21z m-75 -54 c0 -2 -8 -10 -17 -17 -16 -13 -17
-12 -4 4 13 16 21 21 21 13z m-40 -30 c0 -2 -8 -10 -17 -17 -16 -13 -17 -12
-4 4 13 16 21 21 21 13z"/>
<path d="M9391 4534 c-6 -22 -11 -48 -11 -59 0 -25 -83 -561 -109 -705 -11
-58 -22 -123 -26 -145 -3 -22 -10 -65 -15 -95 -4 -30 -11 -63 -15 -73 -5 -13
-3 -16 8 -11 9 3 19 19 22 35 4 16 10 27 13 25 4 -2 8 8 8 22 1 15 11 70 22
122 41 200 85 466 127 774 14 105 14 121 1 134 -13 13 -16 10 -25 -24z"/>
<path d="M9272 4339 c-24 -12 -47 -32 -52 -43 -4 -12 -18 -85 -30 -162 -38
-246 -90 -536 -135 -749 -30 -144 -30 -152 -11 -135 8 6 25 11 38 9 48 -5 75
16 87 68 14 63 40 195 51 258 5 28 23 131 40 230 17 99 36 207 41 240 5 33 15
101 24 150 18 111 19 155 3 155 -7 0 -32 -10 -56 -21z"/>
<path d="M9221 3422 c-6 -10 -13 -34 -16 -52 -5 -29 -4 -31 9 -21 16 13 33 78
23 87 -3 3 -10 -3 -16 -14z"/>
<path d="M9170 3209 c0 -25 4 -39 11 -37 6 2 10 7 10 11 -1 4 -1 21 -1 37 0
17 -4 30 -10 30 -5 0 -10 -18 -10 -41z"/>
<path d="M8970 3148 c-55 -224 -130 -394 -263 -598 l-29 -45 42 45 c51 56 73
89 139 213 63 120 97 209 118 307 8 41 17 85 20 98 3 12 1 22 -5 22 -6 0 -16
-19 -22 -42z"/>
<path d="M9146 3100 c-4 -19 -10 -43 -12 -52 -3 -11 0 -18 9 -18 19 0 27 30
18 72 l-8 33 -7 -35z"/>
</g>
</svg>
